<svg xmlns="http://www.w3.org/2000/svg" viewBox="0 0 512 512" style="height: 512px; width: 512px;"><defs><filter id="shadow-1" height="300%" width="300%" x="-100%" y="-100%"><feFlood flood-color="rgba(80, 227, 194, 1)" result="flood"></feFlood><feComposite in="flood" in2="SourceGraphic" operator="atop" result="composite"></feComposite><feGaussianBlur in="composite" stdDeviation="25" result="blur"></feGaussianBlur><feOffset dx="0" dy="0" result="offset"></feOffset><feComposite in="SourceGraphic" in2="offset" operator="over"></feComposite></filter></defs><g class="" transform="translate(0,0)" style=""><path d="M226.878 16v243.274a120.023 120.023 0 0 0 30 236.71 119.996 119.996 0 0 0 29.998-236.242v-93.747h59.998v-44.998h-59.998v-45h89.997V16H226.878zm25.312 299.99a60.01 60.01 0 0 1 2.343 0 59.998 59.998 0 0 1 2.343 0 59.998 59.998 0 0 1 0 119.996 60.044 60.044 0 0 1-4.688-119.996z" fill="#02c3ea" fill-opacity="1" data-darkreader-inline-fill="" style="--darkreader-inline-fill:#029cbb; --darkreader-inline-stroke:#c8c3bc;" filter="url(#shadow-1)" stroke="#ccc" stroke-opacity="1" stroke-width="8" data-darkreader-inline-stroke="" transform="translate(51.2, 51.2) scale(0.8, 0.8) rotate(0, 256, 256) skewX(0) skewY(0)"></path></g></svg>